<svg width="60" height="20" viewBox="0 0 60 20" fill="none" xmlns="http://www.w3.org/2000/svg">
<rect width="60" height="20" rx="10" fill="#101419"/>
<path d="M6.69563 13H5.96563C5.92229 13 5.88896 12.9867 5.86563 12.96C5.84229 12.9333 5.83396 12.8967 5.84063 12.85L6.74063 6.45C6.74396 6.40667 6.76063 6.37167 6.79063 6.345C6.82396 6.315 6.86396 6.3 6.91063 6.3H11.2106C11.3073 6.3 11.3506 6.35 11.3406 6.45L11.2506 7.08C11.234 7.18 11.1773 7.23 11.0806 7.23H7.66063L7.32563 9.57H10.5206C10.6173 9.57 10.6606 9.62 10.6506 9.72L10.5606 10.35C10.5573 10.3933 10.539 10.43 10.5056 10.46C10.4756 10.4867 10.4373 10.5 10.3906 10.5H7.20063L6.87063 12.85C6.85396 12.95 6.79563 13 6.69563 13ZM16.558 11.9L16.768 12.195C16.8446 12.2917 16.8396 12.3783 16.753 12.455C16.4963 12.685 16.188 12.855 15.828 12.965C15.4713 13.075 15.0946 13.13 14.698 13.13C13.9313 13.13 13.3363 12.9267 12.913 12.52C12.4896 12.11 12.278 11.565 12.278 10.885C12.278 10.3583 12.403 9.87 12.653 9.42C12.9063 8.97 13.253 8.61167 13.693 8.345C14.1363 8.075 14.623 7.94 15.153 7.94C15.6696 7.94 16.068 8.06167 16.348 8.305C16.628 8.54833 16.768 8.845 16.768 9.195C16.768 10.1417 15.6313 10.9183 13.358 11.525C13.578 12.0417 14.0646 12.3 14.818 12.3C15.4046 12.3 15.9046 12.16 16.318 11.88C16.418 11.81 16.498 11.8167 16.558 11.9ZM15.068 8.785C14.7646 8.785 14.4746 8.86333 14.198 9.02C13.9246 9.17333 13.6946 9.40667 13.508 9.72C13.3213 10.03 13.2263 10.385 13.223 10.785C14.173 10.495 14.848 10.2417 15.248 10.025C15.648 9.80833 15.848 9.57833 15.848 9.335C15.848 9.18167 15.7813 9.05167 15.648 8.945C15.518 8.83833 15.3246 8.785 15.068 8.785ZM23.1903 12.25C23.2536 12.2367 23.2986 12.2517 23.3253 12.295C23.3553 12.335 23.3636 12.4 23.3503 12.49C23.3203 12.65 23.2403 12.7867 23.1103 12.9C22.9803 13.0133 22.822 13.07 22.6353 13.07C22.372 13.07 22.167 12.965 22.0203 12.755C21.8736 12.545 21.8236 12.2483 21.8703 11.865L21.9653 11.125H21.8703C21.577 11.785 21.252 12.285 20.8953 12.625C20.542 12.9617 20.1386 13.13 19.6853 13.13C19.2386 13.13 18.882 12.9733 18.6153 12.66C18.352 12.3433 18.2203 11.8883 18.2203 11.295C18.2203 10.6883 18.3553 10.1317 18.6253 9.625C18.8986 9.11833 19.2936 8.71167 19.8103 8.405C20.327 8.095 20.9153 7.94 21.5753 7.94C21.9253 7.94 22.257 7.985 22.5703 8.075C22.887 8.16167 23.127 8.29 23.2903 8.46L22.9603 10.835L22.8353 11.7C22.8053 11.9333 22.8103 12.0917 22.8503 12.175C22.8903 12.2583 23.0036 12.2833 23.1903 12.25ZM20.0603 12.235C20.2903 12.235 20.5136 12.1567 20.7303 12C20.9503 11.84 21.1403 11.6417 21.3003 11.405C21.4636 11.165 21.6136 10.8967 21.7503 10.6C21.887 10.3033 21.9953 10.0267 22.0753 9.77C22.1586 9.51333 22.222 9.27667 22.2653 9.06C22.1253 8.91 21.847 8.835 21.4303 8.835C20.997 8.835 20.607 8.94 20.2603 9.15C19.917 9.35667 19.652 9.63333 19.4653 9.98C19.282 10.3233 19.1903 10.7 19.1903 11.11C19.1903 11.5033 19.272 11.79 19.4353 11.97C19.5986 12.1467 19.807 12.235 20.0603 12.235ZM27.1427 8.05H29.3877C29.501 8.05 29.5493 8.10333 29.5327 8.21L29.4527 8.75C29.4393 8.84333 29.386 8.89 29.2927 8.89H27.0227L26.7177 11.04C26.6843 11.2667 26.6843 11.4633 26.7177 11.63C26.7543 11.7933 26.816 11.9183 26.9027 12.005C26.9927 12.0883 27.091 12.15 27.1977 12.19C27.3043 12.2267 27.4227 12.245 27.5527 12.245C27.836 12.245 28.0743 12.165 28.2677 12.005C28.4643 11.845 28.6143 11.6367 28.7177 11.38C28.7543 11.2967 28.821 11.275 28.9177 11.315L29.3627 11.5C29.4393 11.5333 29.4643 11.6017 29.4377 11.705C29.3243 12.1183 29.086 12.46 28.7227 12.73C28.3593 12.9967 27.9277 13.13 27.4277 13.13C27.2377 13.13 27.0543 13.11 26.8777 13.07C26.7043 13.03 26.536 12.9617 26.3727 12.865C26.2093 12.765 26.0727 12.6417 25.9627 12.495C25.8527 12.345 25.7727 12.1517 25.7227 11.915C25.676 11.6783 25.6743 11.4117 25.7177 11.115L26.0327 8.89H24.5027C24.4527 8.89 24.4143 8.87667 24.3877 8.85C24.3643 8.82 24.356 8.78 24.3627 8.73L24.4377 8.19C24.451 8.09667 24.506 8.05 24.6027 8.05H26.1527L26.3777 6.44C26.391 6.34667 26.4443 6.3 26.5377 6.3H27.2277C27.3377 6.3 27.3843 6.35333 27.3677 6.46L27.1427 8.05ZM31.96 13.11C31.5133 13.11 31.175 12.94 30.945 12.6C30.715 12.2567 30.6583 11.7883 30.775 11.195L31.13 9.35C31.17 9.12667 31.1667 8.97 31.12 8.88C31.0733 8.79 30.955 8.76333 30.765 8.8C30.7017 8.81333 30.655 8.8 30.625 8.76C30.5983 8.71667 30.5917 8.65 30.605 8.56C30.635 8.4 30.715 8.26333 30.845 8.15C30.975 8.03667 31.1317 7.98 31.315 7.98C31.595 7.98 31.82 8.08833 31.99 8.305C32.16 8.51833 32.21 8.81167 32.14 9.185L31.795 10.98C31.7217 11.37 31.7383 11.67 31.845 11.88C31.955 12.09 32.1317 12.195 32.375 12.195C32.835 12.195 33.2767 11.835 33.7 11.115C34.1233 10.3917 34.4267 9.41667 34.61 8.19C34.6233 8.09667 34.6767 8.05 34.77 8.05H35.445C35.5517 8.05 35.5983 8.10333 35.585 8.21L35.085 11.72C35.0517 11.9533 35.055 12.1133 35.095 12.2C35.1383 12.2833 35.2517 12.3067 35.435 12.27C35.4983 12.26 35.545 12.275 35.575 12.315C35.605 12.355 35.6117 12.4217 35.595 12.515C35.5683 12.675 35.49 12.8117 35.36 12.925C35.23 13.0383 35.0717 13.095 34.885 13.095C34.615 13.095 34.4017 12.99 34.245 12.78C34.0883 12.5667 34.0367 12.27 34.09 11.89L34.19 11.14H34.09C33.8033 11.7967 33.48 12.29 33.12 12.62C32.76 12.9467 32.3733 13.11 31.96 13.11ZM41.6973 11.72L42.0073 11.965C42.0773 12.0217 42.0957 12.0933 42.0623 12.18C41.949 12.4567 41.774 12.685 41.5373 12.865C41.3007 13.0417 41.029 13.13 40.7223 13.13C40.339 13.13 40.039 12.9917 39.8223 12.715C39.609 12.435 39.5407 12.0633 39.6173 11.6L39.9873 9.36C39.5873 9.63333 39.1023 9.77 38.5323 9.77C38.339 9.77 38.1557 9.75167 37.9823 9.715L37.7423 10.975C37.7223 11.0683 37.669 11.115 37.5823 11.115H36.9323C36.8223 11.115 36.7773 11.0617 36.7973 10.955L37.1323 9.22C36.9723 9.02 36.8923 8.79333 36.8923 8.54C36.8923 8.29333 36.964 8.08167 37.1073 7.905C37.254 7.72833 37.439 7.64 37.6623 7.64C37.8223 7.64 37.954 7.68667 38.0573 7.78C38.1607 7.87333 38.2123 7.99167 38.2123 8.135C38.2123 8.25833 38.174 8.365 38.0973 8.455C38.024 8.545 37.929 8.59167 37.8123 8.595C37.859 8.80167 38.114 8.905 38.5773 8.905C38.944 8.905 39.2823 8.835 39.5923 8.695C39.9023 8.55167 40.1007 8.37833 40.1873 8.175C40.2207 8.09167 40.2773 8.05 40.3573 8.05H41.0223C41.129 8.05 41.174 8.105 41.1573 8.215L40.5973 11.51C40.5173 12 40.6157 12.245 40.8923 12.245C41.019 12.245 41.1273 12.2033 41.2173 12.12C41.3107 12.0367 41.404 11.9133 41.4973 11.75C41.544 11.6667 41.6107 11.6567 41.6973 11.72ZM47.3197 11.9L47.5297 12.195C47.6064 12.2917 47.6014 12.3783 47.5147 12.455C47.258 12.685 46.9497 12.855 46.5897 12.965C46.233 13.075 45.8564 13.13 45.4597 13.13C44.693 13.13 44.098 12.9267 43.6747 12.52C43.2514 12.11 43.0397 11.565 43.0397 10.885C43.0397 10.3583 43.1647 9.87 43.4147 9.42C43.668 8.97 44.0147 8.61167 44.4547 8.345C44.898 8.075 45.3847 7.94 45.9147 7.94C46.4314 7.94 46.8297 8.06167 47.1097 8.305C47.3897 8.54833 47.5297 8.845 47.5297 9.195C47.5297 10.1417 46.393 10.9183 44.1197 11.525C44.3397 12.0417 44.8264 12.3 45.5797 12.3C46.1664 12.3 46.6664 12.16 47.0797 11.88C47.1797 11.81 47.2597 11.8167 47.3197 11.9ZM45.8297 8.785C45.5264 8.785 45.2364 8.86333 44.9597 9.02C44.6864 9.17333 44.4564 9.40667 44.2697 9.72C44.083 10.03 43.988 10.385 43.9847 10.785C44.9347 10.495 45.6097 10.2417 46.0097 10.025C46.4097 9.80833 46.6097 9.57833 46.6097 9.335C46.6097 9.18167 46.543 9.05167 46.4097 8.945C46.2797 8.83833 46.0864 8.785 45.8297 8.785ZM51.767 7.935H52.887C52.887 8.20167 52.922 8.455 52.992 8.695C53.0654 8.93167 53.1537 9.14 53.257 9.32C53.3637 9.5 53.4687 9.67667 53.572 9.85C53.6754 10.0233 53.762 10.2133 53.832 10.42C53.9054 10.6267 53.942 10.84 53.942 11.06C53.942 11.48 53.8154 11.85 53.562 12.17C53.312 12.49 52.9837 12.73 52.577 12.89C52.1737 13.05 51.7287 13.13 51.242 13.13C50.8654 13.13 50.527 13.08 50.227 12.98C49.9304 12.8767 49.6937 12.7417 49.517 12.575C49.3404 12.405 49.2137 12.2117 49.137 11.995C49.0637 11.7783 49.0504 11.5533 49.097 11.32C49.117 11.2367 49.1737 11.195 49.267 11.195H49.922C50.0187 11.195 50.0637 11.2467 50.057 11.35C50.0437 11.6067 50.1554 11.8167 50.392 11.98C50.632 12.1433 50.9454 12.225 51.332 12.225C51.7954 12.225 52.1837 12.1067 52.497 11.87C52.8104 11.6333 52.967 11.3133 52.967 10.91C52.967 10.7233 52.9287 10.5367 52.852 10.35C52.7754 10.1633 52.6887 10.0017 52.592 9.865C52.4987 9.72833 52.4054 9.555 52.312 9.345C52.222 9.135 52.1654 8.92167 52.142 8.705L50.802 10.215C50.6587 10.3717 50.4704 10.3417 50.237 10.125C50.1304 10.0283 50.0687 9.93 50.052 9.83C50.0354 9.73 50.062 9.645 50.132 9.575L51.587 8.02C51.6404 7.96333 51.7004 7.935 51.767 7.935Z" fill="#A9A1E1"/>
</svg>
