<svg width="60" height="20" viewBox="0 0 60 20" fill="none" xmlns="http://www.w3.org/2000/svg">
<rect width="60" height="20" rx="10" fill="#2D3146"/>
<path d="M17.3591 13.15C16.5958 13.15 16.0291 12.95 15.6591 12.55C15.2925 12.15 15.1641 11.565 15.2741 10.795L15.8791 6.45C15.8958 6.35 15.9525 6.3 16.0491 6.3H16.7791C16.8258 6.3 16.8608 6.315 16.8841 6.345C16.9075 6.37167 16.9158 6.40667 16.9091 6.45L16.3141 10.705C16.2475 11.1683 16.3125 11.5283 16.5091 11.785C16.7058 12.0383 17.0258 12.165 17.4691 12.165C17.9091 12.165 18.2625 12.0383 18.5291 11.785C18.7991 11.5283 18.9675 11.1683 19.0341 10.705L19.6291 6.45C19.6458 6.35 19.7025 6.3 19.7991 6.3H20.5291C20.5758 6.3 20.6108 6.315 20.6341 6.345C20.6575 6.37167 20.6658 6.40667 20.6591 6.45L20.0541 10.795C19.9441 11.5683 19.6558 12.155 19.1891 12.555C18.7258 12.9517 18.1158 13.15 17.3591 13.15ZM24.0815 7.935H25.2015C25.2015 8.20167 25.2365 8.455 25.3065 8.695C25.3798 8.93167 25.4682 9.14 25.5715 9.32C25.6782 9.5 25.7832 9.67667 25.8865 9.85C25.9898 10.0233 26.0765 10.2133 26.1465 10.42C26.2198 10.6267 26.2565 10.84 26.2565 11.06C26.2565 11.48 26.1298 11.85 25.8765 12.17C25.6265 12.49 25.2982 12.73 24.8915 12.89C24.4882 13.05 24.0432 13.13 23.5565 13.13C23.1798 13.13 22.8415 13.08 22.5415 12.98C22.2448 12.8767 22.0082 12.7417 21.8315 12.575C21.6548 12.405 21.5282 12.2117 21.4515 11.995C21.3782 11.7783 21.3648 11.5533 21.4115 11.32C21.4315 11.2367 21.4882 11.195 21.5815 11.195H22.2365C22.3332 11.195 22.3782 11.2467 22.3715 11.35C22.3582 11.6067 22.4698 11.8167 22.7065 11.98C22.9465 12.1433 23.2598 12.225 23.6465 12.225C24.1098 12.225 24.4982 12.1067 24.8115 11.87C25.1248 11.6333 25.2815 11.3133 25.2815 10.91C25.2815 10.7233 25.2432 10.5367 25.1665 10.35C25.0898 10.1633 25.0032 10.0017 24.9065 9.865C24.8132 9.72833 24.7198 9.555 24.6265 9.345C24.5365 9.135 24.4798 8.92167 24.4565 8.705L23.1165 10.215C22.9732 10.3717 22.7848 10.3417 22.5515 10.125C22.4448 10.0283 22.3832 9.93 22.3665 9.83C22.3498 9.73 22.3765 9.645 22.4465 9.575L23.9015 8.02C23.9548 7.96333 24.0148 7.935 24.0815 7.935ZM32.4188 12.25C32.4822 12.2367 32.5272 12.2517 32.5538 12.295C32.5838 12.335 32.5922 12.4 32.5788 12.49C32.5488 12.65 32.4688 12.7867 32.3388 12.9C32.2088 13.0133 32.0505 13.07 31.8638 13.07C31.6005 13.07 31.3955 12.965 31.2488 12.755C31.1022 12.545 31.0522 12.2483 31.0988 11.865L31.1938 11.125H31.0988C30.8055 11.785 30.4805 12.285 30.1238 12.625C29.7705 12.9617 29.3672 13.13 28.9138 13.13C28.4672 13.13 28.1105 12.9733 27.8438 12.66C27.5805 12.3433 27.4488 11.8883 27.4488 11.295C27.4488 10.6883 27.5838 10.1317 27.8538 9.625C28.1272 9.11833 28.5222 8.71167 29.0388 8.405C29.5555 8.095 30.1438 7.94 30.8038 7.94C31.1538 7.94 31.4855 7.985 31.7988 8.075C32.1155 8.16167 32.3555 8.29 32.5188 8.46L32.1888 10.835L32.0638 11.7C32.0338 11.9333 32.0388 12.0917 32.0788 12.175C32.1188 12.2583 32.2322 12.2833 32.4188 12.25ZM29.2888 12.235C29.5188 12.235 29.7422 12.1567 29.9588 12C30.1788 11.84 30.3688 11.6417 30.5288 11.405C30.6922 11.165 30.8422 10.8967 30.9788 10.6C31.1155 10.3033 31.2238 10.0267 31.3038 9.77C31.3872 9.51333 31.4505 9.27667 31.4938 9.06C31.3538 8.91 31.0755 8.835 30.6588 8.835C30.2255 8.835 29.8355 8.94 29.4888 9.15C29.1455 9.35667 28.8805 9.63333 28.6938 9.98C28.5105 10.3233 28.4188 10.7 28.4188 11.11C28.4188 11.5033 28.5005 11.79 28.6638 11.97C28.8272 12.1467 29.0355 12.235 29.2888 12.235ZM37.0212 7.94C37.3778 7.94 37.7128 7.985 38.0262 8.075C38.3428 8.16167 38.5828 8.29 38.7462 8.46L38.1462 12.75C38.0962 13.0933 38.0012 13.3967 37.8612 13.66C37.7212 13.9267 37.5578 14.14 37.3712 14.3C37.1845 14.4633 36.9695 14.5967 36.7262 14.7C36.4828 14.8067 36.2445 14.88 36.0112 14.92C35.7778 14.96 35.5328 14.98 35.2762 14.98C34.5662 14.98 33.9978 14.85 33.5712 14.59C33.5012 14.55 33.4895 14.4817 33.5362 14.385L33.7412 13.95C33.7812 13.8667 33.8462 13.8417 33.9362 13.875C34.3295 14.055 34.7662 14.145 35.2462 14.145C36.3962 14.145 37.0378 13.6583 37.1712 12.685L37.3912 11.125H37.3262C36.7428 12.3317 36.0162 12.935 35.1462 12.935C34.6995 12.935 34.3462 12.7817 34.0862 12.475C33.8262 12.165 33.6962 11.7267 33.6962 11.16C33.6962 10.7233 33.7762 10.31 33.9362 9.92C34.0962 9.52667 34.3178 9.185 34.6012 8.895C34.8845 8.60167 35.2345 8.37 35.6512 8.2C36.0712 8.02667 36.5278 7.94 37.0212 7.94ZM35.5312 12.04C35.7245 12.04 35.9128 11.9883 36.0962 11.885C36.2828 11.7817 36.4478 11.645 36.5912 11.475C36.7378 11.3017 36.8745 11.11 37.0012 10.9C37.1312 10.69 37.2428 10.4717 37.3362 10.245C37.4328 10.015 37.5128 9.80167 37.5762 9.605C37.6395 9.40833 37.6878 9.22667 37.7212 9.06C37.5845 8.91 37.3045 8.835 36.8812 8.835C36.5545 8.835 36.2512 8.89167 35.9712 9.005C35.6912 9.11833 35.4562 9.27167 35.2662 9.465C35.0762 9.65833 34.9278 9.885 34.8212 10.145C34.7145 10.405 34.6612 10.6783 34.6612 10.965C34.6612 11.3317 34.7428 11.6033 34.9062 11.78C35.0728 11.9533 35.2812 12.04 35.5312 12.04ZM44.2435 11.9L44.4535 12.195C44.5302 12.2917 44.5252 12.3783 44.4385 12.455C44.1818 12.685 43.8735 12.855 43.5135 12.965C43.1568 13.075 42.7802 13.13 42.3835 13.13C41.6168 13.13 41.0218 12.9267 40.5985 12.52C40.1752 12.11 39.9635 11.565 39.9635 10.885C39.9635 10.3583 40.0885 9.87 40.3385 9.42C40.5918 8.97 40.9385 8.61167 41.3785 8.345C41.8218 8.075 42.3085 7.94 42.8385 7.94C43.3552 7.94 43.7535 8.06167 44.0335 8.305C44.3135 8.54833 44.4535 8.845 44.4535 9.195C44.4535 10.1417 43.3168 10.9183 41.0435 11.525C41.2635 12.0417 41.7502 12.3 42.5035 12.3C43.0902 12.3 43.5902 12.16 44.0035 11.88C44.1035 11.81 44.1835 11.8167 44.2435 11.9ZM42.7535 8.785C42.4502 8.785 42.1602 8.86333 41.8835 9.02C41.6102 9.17333 41.3802 9.40667 41.1935 9.72C41.0068 10.03 40.9118 10.385 40.9085 10.785C41.8585 10.495 42.5335 10.2417 42.9335 10.025C43.3335 9.80833 43.5335 9.57833 43.5335 9.335C43.5335 9.18167 43.4668 9.05167 43.3335 8.945C43.2035 8.83833 43.0102 8.785 42.7535 8.785Z" fill="#EED49F"/>
</svg>
