<svg width="60" height="20" viewBox="0 0 60 20" fill="none" xmlns="http://www.w3.org/2000/svg">
<rect width="60" height="20" rx="10" fill="#2D3146"/>
<path d="M23.3053 6.3H23.9603C24.057 6.3 24.0886 6.35667 24.0553 6.47L22.3153 12.88C22.3053 12.9167 22.2786 12.9467 22.2353 12.97C22.1953 12.99 22.1536 13 22.1103 13H21.2353C21.1353 13 21.082 12.96 21.0753 12.88L20.9903 8.975L19.8053 12.88C19.7786 12.96 19.712 13 19.6053 13H18.7203C18.677 13 18.6386 12.99 18.6053 12.97C18.5753 12.9467 18.5603 12.9167 18.5603 12.88L18.6253 6.47C18.6253 6.35667 18.6736 6.3 18.7703 6.3H19.4353C19.5353 6.3 19.5853 6.34 19.5853 6.42L19.4453 11.695L20.9053 7.02C20.9286 6.94 20.9903 6.9 21.0903 6.9H21.4703C21.5703 6.9 21.622 6.94 21.6253 7.02L21.7703 11.695L23.1153 6.42C23.132 6.34 23.1953 6.3 23.3053 6.3ZM27.7777 6.565C27.6477 6.695 27.4893 6.76 27.3027 6.76C27.116 6.76 26.9577 6.695 26.8277 6.565C26.6977 6.43167 26.6327 6.27167 26.6327 6.085C26.6327 5.89833 26.6977 5.74 26.8277 5.61C26.9577 5.48 27.116 5.415 27.3027 5.415C27.4893 5.415 27.6477 5.48 27.7777 5.61C27.911 5.74 27.9777 5.89833 27.9777 6.085C27.9777 6.27167 27.911 6.43167 27.7777 6.565ZM29.2877 11.9L29.4877 12.275C29.5277 12.3483 29.5193 12.4133 29.4627 12.47C29.2927 12.64 29.0593 12.7933 28.7627 12.93C28.4693 13.0633 28.136 13.13 27.7627 13.13C27.566 13.13 27.381 13.1083 27.2077 13.065C27.0343 13.025 26.8643 12.9583 26.6977 12.865C26.531 12.7683 26.3977 12.6417 26.2977 12.485C26.1977 12.3283 26.1243 12.135 26.0777 11.905C26.031 11.675 26.0393 11.405 26.1027 11.095L26.3927 9.49C26.0693 9.71667 25.671 9.83 25.1977 9.83C24.891 9.83 24.6393 9.785 24.4427 9.695C24.366 9.66167 24.3343 9.6 24.3477 9.51L24.4327 8.965C24.4493 8.85167 24.5127 8.80833 24.6227 8.835C24.8093 8.88167 25.0043 8.905 25.2077 8.905C25.561 8.905 25.8627 8.83833 26.1127 8.705C26.366 8.57167 26.5377 8.395 26.6277 8.175C26.661 8.09167 26.7177 8.05 26.7977 8.05H27.4527C27.5627 8.05 27.606 8.105 27.5827 8.215L27.0827 11.115C27.0127 11.5183 27.0643 11.8083 27.2377 11.985C27.4143 12.1583 27.6543 12.245 27.9577 12.245C28.1077 12.245 28.256 12.2217 28.4027 12.175C28.5493 12.1283 28.6643 12.08 28.7477 12.03C28.8343 11.98 28.936 11.915 29.0527 11.835C29.1493 11.765 29.2277 11.7867 29.2877 11.9ZM34.685 8.05H35.54C35.6033 8.05 35.6417 8.075 35.655 8.125C35.6717 8.17167 35.655 8.21833 35.605 8.265L33.395 10.22L33.86 11.495C33.9567 11.775 34.0567 11.9767 34.16 12.1C34.2667 12.2233 34.415 12.285 34.605 12.285C34.7517 12.285 34.9283 12.2333 35.135 12.13C35.1717 12.1067 35.2167 12.1033 35.27 12.12C35.3233 12.1367 35.3617 12.18 35.385 12.25L35.485 12.56C35.5283 12.6933 35.4417 12.825 35.225 12.955C35.0083 13.085 34.745 13.15 34.435 13.15C33.805 13.15 33.365 12.81 33.115 12.13L32.65 10.88L31.68 11.735L31.52 12.86C31.5067 12.9533 31.4533 13 31.36 13H30.68C30.5733 13 30.5267 12.9467 30.54 12.84L31.495 6.14C31.5083 6.04667 31.5617 6 31.655 6H32.34C32.39 6 32.4267 6.015 32.45 6.045C32.4767 6.07167 32.4867 6.11 32.48 6.16L31.865 10.46L34.485 8.12C34.535 8.07333 34.6017 8.05 34.685 8.05ZM40.0823 6.565C39.9523 6.695 39.794 6.76 39.6073 6.76C39.4207 6.76 39.2623 6.695 39.1323 6.565C39.0023 6.43167 38.9373 6.27167 38.9373 6.085C38.9373 5.89833 39.0023 5.74 39.1323 5.61C39.2623 5.48 39.4207 5.415 39.6073 5.415C39.794 5.415 39.9523 5.48 40.0823 5.61C40.2157 5.74 40.2823 5.89833 40.2823 6.085C40.2823 6.27167 40.2157 6.43167 40.0823 6.565ZM41.5923 11.9L41.7923 12.275C41.8323 12.3483 41.824 12.4133 41.7673 12.47C41.5973 12.64 41.364 12.7933 41.0673 12.93C40.774 13.0633 40.4407 13.13 40.0673 13.13C39.8707 13.13 39.6857 13.1083 39.5123 13.065C39.339 13.025 39.169 12.9583 39.0023 12.865C38.8357 12.7683 38.7023 12.6417 38.6023 12.485C38.5023 12.3283 38.429 12.135 38.3823 11.905C38.3357 11.675 38.344 11.405 38.4073 11.095L38.6973 9.49C38.374 9.71667 37.9757 9.83 37.5023 9.83C37.1957 9.83 36.944 9.785 36.7473 9.695C36.6707 9.66167 36.639 9.6 36.6523 9.51L36.7373 8.965C36.754 8.85167 36.8173 8.80833 36.9273 8.835C37.114 8.88167 37.309 8.905 37.5123 8.905C37.8657 8.905 38.1673 8.83833 38.4173 8.705C38.6707 8.57167 38.8423 8.395 38.9323 8.175C38.9657 8.09167 39.0223 8.05 39.1023 8.05H39.7573C39.8673 8.05 39.9107 8.105 39.8873 8.215L39.3873 11.115C39.3173 11.5183 39.369 11.8083 39.5423 11.985C39.719 12.1583 39.959 12.245 40.2623 12.245C40.4123 12.245 40.5607 12.2217 40.7073 12.175C40.854 12.1283 40.969 12.08 41.0523 12.03C41.139 11.98 41.2407 11.915 41.3573 11.835C41.454 11.765 41.5323 11.7867 41.5923 11.9Z" fill="#F5BDE6"/>
</svg>
