<svg width="60" height="20" viewBox="0 0 60 20" fill="none" xmlns="http://www.w3.org/2000/svg">
<rect width="60" height="20" rx="10" fill="#2D3146"/>
<path d="M18.6232 13.135C17.9602 13.135 17.4517 12.997 17.0977 12.721C16.7437 12.445 16.5817 12.0295 16.6117 11.4745C16.6147 11.4295 16.6297 11.392 16.6567 11.362C16.6867 11.332 16.7212 11.317 16.7602 11.317H17.3857C17.4607 11.317 17.4982 11.3605 17.4982 11.4475C17.4982 11.7115 17.6047 11.9215 17.8177 12.0775C18.0337 12.2335 18.3427 12.3115 18.7447 12.3115C19.1617 12.3115 19.4977 12.223 19.7527 12.046C20.0107 11.869 20.1397 11.6155 20.1397 11.2855C20.1397 11.0245 20.0437 10.8265 19.8517 10.6915C19.6627 10.5535 19.3477 10.432 18.9067 10.327C18.7027 10.279 18.5227 10.228 18.3667 10.174C18.2137 10.117 18.0592 10.0435 17.9032 9.9535C17.7502 9.8635 17.6242 9.7615 17.5252 9.6475C17.4262 9.5335 17.3452 9.394 17.2822 9.229C17.2222 9.064 17.1922 8.8795 17.1922 8.6755C17.1922 8.1175 17.3947 7.6795 17.7997 7.3615C18.2077 7.0405 18.7537 6.88 19.4377 6.88C20.0497 6.88 20.5237 7.0135 20.8597 7.2805C21.1957 7.5445 21.3502 7.9405 21.3232 8.4685C21.3232 8.5135 21.3097 8.548 21.2827 8.572C21.2557 8.596 21.2212 8.608 21.1792 8.608H20.6032C20.5222 8.608 20.4847 8.5705 20.4907 8.4955C20.4907 8.2555 20.3887 8.0635 20.1847 7.9195C19.9807 7.7755 19.6972 7.7035 19.3342 7.7035C18.9592 7.7035 18.6577 7.7845 18.4297 7.9465C18.2047 8.1055 18.0922 8.332 18.0922 8.626C18.0922 8.857 18.1777 9.0445 18.3487 9.1885C18.5227 9.3295 18.8152 9.4495 19.2262 9.5485C19.3852 9.5875 19.5217 9.6235 19.6357 9.6565C19.7497 9.6865 19.8742 9.727 20.0092 9.778C20.1472 9.829 20.2627 9.883 20.3557 9.94C20.4487 9.997 20.5432 10.0675 20.6392 10.1515C20.7352 10.2355 20.8102 10.327 20.8642 10.426C20.9212 10.525 20.9677 10.642 21.0037 10.777C21.0397 10.912 21.0577 11.059 21.0577 11.218C21.0577 11.827 20.8357 12.2995 20.3917 12.6355C19.9507 12.9685 19.3612 13.135 18.6232 13.135ZM26.2078 12.01L26.3968 12.2755C26.4658 12.3625 26.4613 12.4405 26.3833 12.5095C26.1523 12.7165 25.8748 12.8695 25.5508 12.9685C25.2298 13.0675 24.8908 13.117 24.5338 13.117C23.8438 13.117 23.3083 12.934 22.9273 12.568C22.5463 12.199 22.3558 11.7085 22.3558 11.0965C22.3558 10.6225 22.4683 10.183 22.6933 9.778C22.9213 9.373 23.2333 9.0505 23.6293 8.8105C24.0283 8.5675 24.4663 8.446 24.9433 8.446C25.4083 8.446 25.7668 8.5555 26.0188 8.7745C26.2708 8.9935 26.3968 9.2605 26.3968 9.5755C26.3968 10.4275 25.3738 11.1265 23.3278 11.6725C23.5258 12.1375 23.9638 12.37 24.6418 12.37C25.1698 12.37 25.6198 12.244 25.9918 11.992C26.0818 11.929 26.1538 11.935 26.2078 12.01ZM24.8668 9.2065C24.5938 9.2065 24.3328 9.277 24.0838 9.418C23.8378 9.556 23.6308 9.766 23.4628 10.048C23.2948 10.327 23.2093 10.6465 23.2063 11.0065C24.0613 10.7455 24.6688 10.5175 25.0288 10.3225C25.3888 10.1275 25.5688 9.9205 25.5688 9.7015C25.5688 9.5635 25.5088 9.4465 25.3888 9.3505C25.2718 9.2545 25.0978 9.2065 24.8668 9.2065ZM30.1969 8.545H32.2174C32.3194 8.545 32.3629 8.593 32.3479 8.689L32.2759 9.175C32.2639 9.259 32.2159 9.301 32.1319 9.301H30.0889L29.8144 11.236C29.7844 11.44 29.7844 11.617 29.8144 11.767C29.8474 11.914 29.9029 12.0265 29.9809 12.1045C30.0619 12.1795 30.1504 12.235 30.2464 12.271C30.3424 12.304 30.4489 12.3205 30.5659 12.3205C30.8209 12.3205 31.0354 12.2485 31.2094 12.1045C31.3864 11.9605 31.5214 11.773 31.6144 11.542C31.6474 11.467 31.7074 11.4475 31.7944 11.4835L32.1949 11.65C32.2639 11.68 32.2864 11.7415 32.2624 11.8345C32.1604 12.2065 31.9459 12.514 31.6189 12.757C31.2919 12.997 30.9034 13.117 30.4534 13.117C30.2824 13.117 30.1174 13.099 29.9584 13.063C29.8024 13.027 29.6509 12.9655 29.5039 12.8785C29.3569 12.7885 29.2339 12.6775 29.1349 12.5455C29.0359 12.4105 28.9639 12.2365 28.9189 12.0235C28.8769 11.8105 28.8754 11.5705 28.9144 11.3035L29.1979 9.301H27.8209C27.7759 9.301 27.7414 9.289 27.7174 9.265C27.6964 9.238 27.6889 9.202 27.6949 9.157L27.7624 8.671C27.7744 8.587 27.8239 8.545 27.9109 8.545H29.3059L29.5084 7.096C29.5204 7.012 29.5684 6.97 29.6524 6.97H30.2734C30.3724 6.97 30.4144 7.018 30.3994 7.114L30.1969 8.545ZM34.5326 13.099C34.1306 13.099 33.8261 12.946 33.6191 12.64C33.4121 12.331 33.3611 11.9095 33.4661 11.3755L33.7856 9.715C33.8216 9.514 33.8186 9.373 33.7766 9.292C33.7346 9.211 33.6281 9.187 33.4571 9.22C33.4001 9.232 33.3581 9.22 33.3311 9.184C33.3071 9.145 33.3011 9.085 33.3131 9.004C33.3401 8.86 33.4121 8.737 33.5291 8.635C33.6461 8.533 33.7871 8.482 33.9521 8.482C34.2041 8.482 34.4066 8.5795 34.5596 8.7745C34.7126 8.9665 34.7576 9.2305 34.6946 9.5665L34.3841 11.182C34.3181 11.533 34.3331 11.803 34.4291 11.992C34.5281 12.181 34.6871 12.2755 34.9061 12.2755C35.3201 12.2755 35.7176 11.9515 36.0986 11.3035C36.4796 10.6525 36.7526 9.775 36.9176 8.671C36.9296 8.587 36.9776 8.545 37.0616 8.545H37.6691C37.7651 8.545 37.8071 8.593 37.7951 8.689L37.3451 11.848C37.3151 12.058 37.3181 12.202 37.3541 12.28C37.3931 12.355 37.4951 12.376 37.6601 12.343C37.7171 12.334 37.7591 12.3475 37.7861 12.3835C37.8131 12.4195 37.8191 12.4795 37.8041 12.5635C37.7801 12.7075 37.7096 12.8305 37.5926 12.9325C37.4756 13.0345 37.3331 13.0855 37.1651 13.0855C36.9221 13.0855 36.7301 12.991 36.5891 12.802C36.4481 12.61 36.4016 12.343 36.4496 12.001L36.5396 11.326H36.4496C36.1916 11.917 35.9006 12.361 35.5766 12.658C35.2526 12.952 34.9046 13.099 34.5326 13.099ZM42.0092 8.446C42.4052 8.446 42.7172 8.5885 42.9452 8.8735C43.1762 9.1585 43.2917 9.568 43.2917 10.102C43.2917 10.651 43.1672 11.1535 42.9182 11.6095C42.6692 12.0655 42.3122 12.4315 41.8472 12.7075C41.3822 12.9805 40.8542 13.117 40.2632 13.117C40.0022 13.117 39.7532 13.09 39.5162 13.036L39.2957 14.584C39.2837 14.668 39.2357 14.71 39.1517 14.71H38.5397C38.4437 14.71 38.4017 14.662 38.4137 14.566L39.2552 8.671C39.2672 8.587 39.3152 8.545 39.3992 8.545H40.0157C40.0607 8.545 40.0937 8.5585 40.1147 8.5855C40.1387 8.6095 40.1477 8.644 40.1417 8.689L39.9527 10.0075L39.8852 10.2505H39.9707C40.5077 9.0475 41.1872 8.446 42.0092 8.446ZM40.3802 12.3115C40.7762 12.3115 41.1302 12.22 41.4422 12.037C41.7572 11.851 41.9987 11.6035 42.1667 11.2945C42.3377 10.9855 42.4232 10.6465 42.4232 10.2775C42.4232 9.9235 42.3512 9.664 42.2072 9.499C42.0662 9.334 41.8862 9.2515 41.6672 9.2515C41.4782 9.2515 41.2922 9.3085 41.1092 9.4225C40.9292 9.5335 40.7687 9.676 40.6277 9.85C40.4867 10.024 40.3532 10.2265 40.2272 10.4575C40.1042 10.6855 40.0007 10.906 39.9167 11.119C39.8327 11.332 39.7607 11.5435 39.7007 11.7535L39.6467 12.1405C39.7877 12.2545 40.0322 12.3115 40.3802 12.3115Z" fill="#A6DA95"/>
</svg>
