<svg width="60" height="20" viewBox="0 0 60 20" fill="none" xmlns="http://www.w3.org/2000/svg">
<rect width="60" height="20" rx="10" fill="#101419"/>
<path d="M16.683 12.11L16.618 12.6C16.598 12.7367 16.5346 12.8333 16.428 12.89C16.0813 13.0633 15.648 13.15 15.128 13.15C14.288 13.15 13.6196 12.89 13.123 12.37C12.6263 11.85 12.378 11.1133 12.378 10.16C12.378 9.78667 12.4163 9.41667 12.493 9.05C12.573 8.68 12.6963 8.32333 12.863 7.98C13.0296 7.63667 13.2313 7.33333 13.468 7.07C13.708 6.80667 14.0013 6.59667 14.348 6.44C14.698 6.28 15.078 6.2 15.488 6.2C15.7046 6.2 15.9046 6.22167 16.088 6.265C16.2713 6.30833 16.4446 6.38 16.608 6.48C16.7713 6.58 16.898 6.71167 16.988 6.875C17.078 7.03833 17.1363 7.23833 17.163 7.475C17.1896 7.70833 17.158 7.98167 17.068 8.295C17.048 8.38167 16.993 8.425 16.903 8.425H16.253C16.1463 8.425 16.103 8.36667 16.123 8.25C16.2796 7.54 16.0363 7.185 15.393 7.185C15.1663 7.185 14.9546 7.22833 14.758 7.315C14.5613 7.39833 14.3913 7.51333 14.248 7.66C14.108 7.80667 13.9813 7.975 13.868 8.165C13.758 8.355 13.668 8.55833 13.598 8.775C13.5313 8.98833 13.4796 9.20333 13.443 9.42C13.4096 9.63333 13.393 9.84333 13.393 10.05C13.393 10.74 13.5763 11.265 13.943 11.625C14.313 11.9817 14.8163 12.16 15.453 12.16C15.843 12.16 16.198 12.1033 16.518 11.99C16.5746 11.9667 16.618 11.9667 16.648 11.99C16.678 12.0133 16.6896 12.0533 16.683 12.11ZM20.4603 13.13C19.8003 13.13 19.2636 12.9183 18.8503 12.495C18.4403 12.0717 18.2353 11.5217 18.2353 10.845C18.2353 10.445 18.3103 10.065 18.4603 9.705C18.6136 9.345 18.817 9.03667 19.0703 8.78C19.327 8.52333 19.6286 8.32 19.9753 8.17C20.3253 8.01667 20.6903 7.94 21.0703 7.94C21.737 7.94 22.2786 8.15667 22.6953 8.59C23.112 9.02 23.3153 9.57833 23.3053 10.265C23.2986 10.6617 23.217 11.0383 23.0603 11.395C22.907 11.7483 22.702 12.0517 22.4453 12.305C22.192 12.5583 21.892 12.76 21.5453 12.91C21.1986 13.0567 20.837 13.13 20.4603 13.13ZM20.5403 12.22C21.0403 12.22 21.4653 12.0383 21.8153 11.675C22.1653 11.3117 22.3403 10.8517 22.3403 10.295C22.3403 9.845 22.217 9.49167 21.9703 9.235C21.7236 8.97833 21.3986 8.85 20.9953 8.85C20.4953 8.85 20.0703 9.03167 19.7203 9.395C19.3703 9.75833 19.1953 10.2183 19.1953 10.775C19.1953 11.225 19.3186 11.5783 19.5653 11.835C19.812 12.0917 20.137 12.22 20.5403 12.22ZM29.0927 12.25C29.156 12.2367 29.201 12.2517 29.2277 12.295C29.2577 12.335 29.266 12.4 29.2527 12.49C29.2227 12.65 29.1427 12.7867 29.0127 12.9C28.8827 13.0133 28.726 13.07 28.5427 13.07C28.2627 13.07 28.0377 12.9633 27.8677 12.75C27.701 12.5333 27.6543 12.2383 27.7277 11.865L28.0777 10.07C28.1543 9.68 28.131 9.38 28.0077 9.17C27.8877 8.96 27.7043 8.855 27.4577 8.855C26.9943 8.855 26.551 9.21667 26.1277 9.94C25.7043 10.6633 25.406 11.6367 25.2327 12.86C25.2193 12.9533 25.166 13 25.0727 13H24.3927C24.286 13 24.2393 12.9467 24.2527 12.84L24.9127 8.2C24.926 8.1 24.9793 8.05 25.0727 8.05H25.7177C25.8177 8.05 25.8627 8.105 25.8527 8.215L25.6527 9.91H25.7477C26.3243 8.59667 27.0327 7.94 27.8727 7.94C28.3193 7.94 28.6643 8.11 28.9077 8.45C29.1543 8.79 29.221 9.24667 29.1077 9.82L28.7377 11.7C28.6877 11.91 28.686 12.0633 28.7327 12.16C28.7827 12.2567 28.9027 12.2867 29.0927 12.25ZM33.415 10.225L33.195 10.3L33.085 11.15H35.095C35.205 11.15 35.2517 11.2033 35.235 11.31L35.16 11.82C35.1467 11.9133 35.0933 11.96 35 11.96H32.985L32.85 13.02C32.8133 13.3233 32.7467 13.5917 32.65 13.825C32.5533 14.0583 32.4433 14.2433 32.32 14.38C32.1967 14.52 32.0533 14.6333 31.89 14.72C31.7267 14.81 31.5683 14.87 31.415 14.9C31.265 14.9333 31.105 14.95 30.935 14.95C30.5783 14.95 30.28 14.8883 30.04 14.765C29.8033 14.645 29.695 14.5117 29.715 14.365L29.77 14.015C29.78 13.945 29.8067 13.8983 29.85 13.875C29.8933 13.8517 29.9417 13.8483 29.995 13.865C30.005 13.8683 30.0583 13.8867 30.155 13.92C30.2517 13.9567 30.3233 13.9817 30.37 13.995C30.42 14.0117 30.49 14.0283 30.58 14.045C30.6733 14.0617 30.76 14.07 30.84 14.07C31.4433 14.07 31.795 13.6667 31.895 12.86L32.17 10.66L30.765 11.145C30.7183 11.1617 30.6817 11.1533 30.655 11.12C30.6283 11.0833 30.6183 11.0383 30.625 10.985L30.71 10.415C30.7233 10.3283 30.7767 10.2683 30.87 10.235L32.28 9.75L32.575 7.385C32.6083 7.115 32.6683 6.875 32.755 6.665C32.845 6.45167 32.95 6.27833 33.07 6.145C33.19 6.01167 33.3267 5.90333 33.48 5.82C33.6333 5.73333 33.7867 5.67333 33.94 5.64C34.0967 5.60333 34.26 5.585 34.43 5.585C34.96 5.585 35.3667 5.74333 35.65 6.06C35.9333 6.37333 36.075 6.77667 36.075 7.27C36.075 7.47333 36.05 7.675 36 7.875C35.9533 8.07167 35.8667 8.28333 35.74 8.51C35.6133 8.73333 35.4517 8.945 35.255 9.145C35.0617 9.34167 34.8067 9.53667 34.49 9.73C34.1767 9.92 33.8183 10.085 33.415 10.225ZM34.445 6.47C33.9317 6.47 33.63 6.83 33.54 7.55L33.31 9.39C34.5667 8.89333 35.195 8.20667 35.195 7.33C35.195 6.75667 34.945 6.47 34.445 6.47ZM40.0823 6.565C39.9523 6.695 39.794 6.76 39.6073 6.76C39.4207 6.76 39.2623 6.695 39.1323 6.565C39.0023 6.43167 38.9373 6.27167 38.9373 6.085C38.9373 5.89833 39.0023 5.74 39.1323 5.61C39.2623 5.48 39.4207 5.415 39.6073 5.415C39.794 5.415 39.9523 5.48 40.0823 5.61C40.2157 5.74 40.2823 5.89833 40.2823 6.085C40.2823 6.27167 40.2157 6.43167 40.0823 6.565ZM41.5923 11.9L41.7923 12.275C41.8323 12.3483 41.824 12.4133 41.7673 12.47C41.5973 12.64 41.364 12.7933 41.0673 12.93C40.774 13.0633 40.4407 13.13 40.0673 13.13C39.8707 13.13 39.6857 13.1083 39.5123 13.065C39.339 13.025 39.169 12.9583 39.0023 12.865C38.8357 12.7683 38.7023 12.6417 38.6023 12.485C38.5023 12.3283 38.429 12.135 38.3823 11.905C38.3357 11.675 38.344 11.405 38.4073 11.095L38.6973 9.49C38.374 9.71667 37.9757 9.83 37.5023 9.83C37.1957 9.83 36.944 9.785 36.7473 9.695C36.6707 9.66167 36.639 9.6 36.6523 9.51L36.7373 8.965C36.754 8.85167 36.8173 8.80833 36.9273 8.835C37.114 8.88167 37.309 8.905 37.5123 8.905C37.8657 8.905 38.1673 8.83833 38.4173 8.705C38.6707 8.57167 38.8423 8.395 38.9323 8.175C38.9657 8.09167 39.0223 8.05 39.1023 8.05H39.7573C39.8673 8.05 39.9107 8.105 39.8873 8.215L39.3873 11.115C39.3173 11.5183 39.369 11.8083 39.5423 11.985C39.719 12.1583 39.959 12.245 40.2623 12.245C40.4123 12.245 40.5607 12.2217 40.7073 12.175C40.854 12.1283 40.969 12.08 41.0523 12.03C41.139 11.98 41.2407 11.915 41.3573 11.835C41.454 11.765 41.5323 11.7867 41.5923 11.9ZM46.2497 7.94C46.6064 7.94 46.9414 7.985 47.2547 8.075C47.5714 8.16167 47.8114 8.29 47.9747 8.46L47.3747 12.75C47.3247 13.0933 47.2297 13.3967 47.0897 13.66C46.9497 13.9267 46.7864 14.14 46.5997 14.3C46.413 14.4633 46.198 14.5967 45.9547 14.7C45.7114 14.8067 45.473 14.88 45.2397 14.92C45.0064 14.96 44.7614 14.98 44.5047 14.98C43.7947 14.98 43.2264 14.85 42.7997 14.59C42.7297 14.55 42.718 14.4817 42.7647 14.385L42.9697 13.95C43.0097 13.8667 43.0747 13.8417 43.1647 13.875C43.558 14.055 43.9947 14.145 44.4747 14.145C45.6247 14.145 46.2664 13.6583 46.3997 12.685L46.6197 11.125H46.5547C45.9714 12.3317 45.2447 12.935 44.3747 12.935C43.928 12.935 43.5747 12.7817 43.3147 12.475C43.0547 12.165 42.9247 11.7267 42.9247 11.16C42.9247 10.7233 43.0047 10.31 43.1647 9.92C43.3247 9.52667 43.5464 9.185 43.8297 8.895C44.113 8.60167 44.463 8.37 44.8797 8.2C45.2997 8.02667 45.7564 7.94 46.2497 7.94ZM44.7597 12.04C44.953 12.04 45.1414 11.9883 45.3247 11.885C45.5114 11.7817 45.6764 11.645 45.8197 11.475C45.9664 11.3017 46.103 11.11 46.2297 10.9C46.3597 10.69 46.4714 10.4717 46.5647 10.245C46.6614 10.015 46.7414 9.80167 46.8047 9.605C46.868 9.40833 46.9164 9.22667 46.9497 9.06C46.813 8.91 46.533 8.835 46.1097 8.835C45.783 8.835 45.4797 8.89167 45.1997 9.005C44.9197 9.11833 44.6847 9.27167 44.4947 9.465C44.3047 9.65833 44.1564 9.885 44.0497 10.145C43.943 10.405 43.8897 10.6783 43.8897 10.965C43.8897 11.3317 43.9714 11.6033 44.1347 11.78C44.3014 11.9533 44.5097 12.04 44.7597 12.04Z" fill="#90DAFF"/>
</svg>
