<svg width="60" height="20" viewBox="0 0 60 20" fill="none" xmlns="http://www.w3.org/2000/svg">
<rect width="60" height="20" rx="10" fill="#2D3146"/>
<path d="M9.5118 13H8.9318C8.88513 13 8.85013 12.9867 8.8268 12.96C8.80346 12.93 8.79513 12.8933 8.8018 12.85L9.7018 6.45C9.71846 6.35 9.77513 6.3 9.8718 6.3H10.7068C10.8168 6.3 10.8735 6.33333 10.8768 6.4L11.3968 11.37H11.4568L13.3768 6.4C13.4001 6.33333 13.4635 6.3 13.5668 6.3H14.4018C14.4485 6.3 14.4835 6.315 14.5068 6.345C14.5301 6.37167 14.5385 6.40667 14.5318 6.45L13.6318 12.85C13.6151 12.95 13.5585 13 13.4618 13H12.8818C12.8351 13 12.8001 12.9867 12.7768 12.96C12.7535 12.93 12.7451 12.8933 12.7518 12.85L13.3768 8.43H13.3118L11.7368 12.385C11.7068 12.4617 11.6435 12.5 11.5468 12.5H10.9868C10.8935 12.5 10.8418 12.4617 10.8318 12.385L10.3668 8.43H10.3068L9.6818 12.85C9.66513 12.95 9.60846 13 9.5118 13ZM17.3841 13.13C16.7241 13.13 16.1875 12.9183 15.7741 12.495C15.3641 12.0717 15.1591 11.5217 15.1591 10.845C15.1591 10.445 15.2341 10.065 15.3841 9.705C15.5375 9.345 15.7408 9.03667 15.9941 8.78C16.2508 8.52333 16.5525 8.32 16.8991 8.17C17.2491 8.01667 17.6141 7.94 17.9941 7.94C18.6608 7.94 19.2025 8.15667 19.6191 8.59C20.0358 9.02 20.2391 9.57833 20.2291 10.265C20.2225 10.6617 20.1408 11.0383 19.9841 11.395C19.8308 11.7483 19.6258 12.0517 19.3691 12.305C19.1158 12.5583 18.8158 12.76 18.4691 12.91C18.1225 13.0567 17.7608 13.13 17.3841 13.13ZM17.4641 12.22C17.9641 12.22 18.3891 12.0383 18.7391 11.675C19.0891 11.3117 19.2641 10.8517 19.2641 10.295C19.2641 9.845 19.1408 9.49167 18.8941 9.235C18.6475 8.97833 18.3225 8.85 17.9191 8.85C17.4191 8.85 16.9941 9.03167 16.6441 9.395C16.2941 9.75833 16.1191 10.2183 16.1191 10.775C16.1191 11.225 16.2425 11.5783 16.4891 11.835C16.7358 12.0917 17.0608 12.22 17.4641 12.22ZM26.7115 6.16L26.0515 10.835L25.9265 11.7C25.8965 11.9333 25.9015 12.0917 25.9415 12.175C25.9815 12.2583 26.0948 12.2833 26.2815 12.25C26.3448 12.2367 26.3898 12.2517 26.4165 12.295C26.4465 12.335 26.4548 12.4 26.4415 12.49C26.4115 12.65 26.3315 12.7867 26.2015 12.9C26.0715 13.0133 25.9132 13.07 25.7265 13.07C25.4632 13.07 25.2582 12.965 25.1115 12.755C24.9648 12.545 24.9148 12.2483 24.9615 11.865L25.0565 11.125H24.9615C24.3682 12.4617 23.6265 13.13 22.7365 13.13C22.2932 13.13 21.9432 12.9717 21.6865 12.655C21.4298 12.3383 21.3015 11.885 21.3015 11.295C21.3015 10.8417 21.3815 10.41 21.5415 10C21.7048 9.59 21.9298 9.23333 22.2165 8.93C22.5032 8.62667 22.8548 8.38667 23.2715 8.21C23.6915 8.03 24.1465 7.94 24.6365 7.94C24.9298 7.94 25.2115 7.97 25.4815 8.03L25.7465 6.14C25.7598 6.04667 25.8132 6 25.9065 6H26.5715C26.6815 6 26.7282 6.05333 26.7115 6.16ZM23.1215 12.235C23.3515 12.235 23.5765 12.1567 23.7965 12C24.0198 11.84 24.2132 11.6417 24.3765 11.405C24.5398 11.165 24.6915 10.8983 24.8315 10.605C24.9715 10.3083 25.0832 10.03 25.1665 9.77C25.2498 9.51 25.3132 9.27333 25.3565 9.06C25.2198 8.91 24.9365 8.835 24.5065 8.835C24.0732 8.835 23.6848 8.93833 23.3415 9.145C22.9982 9.34833 22.7332 9.62167 22.5465 9.965C22.3598 10.3083 22.2665 10.6867 22.2665 11.1C22.2665 11.49 22.3465 11.7767 22.5065 11.96C22.6698 12.1433 22.8748 12.235 23.1215 12.235ZM28.8838 13.11C28.4372 13.11 28.0988 12.94 27.8688 12.6C27.6388 12.2567 27.5822 11.7883 27.6988 11.195L28.0538 9.35C28.0938 9.12667 28.0905 8.97 28.0438 8.88C27.9972 8.79 27.8788 8.76333 27.6888 8.8C27.6255 8.81333 27.5788 8.8 27.5488 8.76C27.5222 8.71667 27.5155 8.65 27.5288 8.56C27.5588 8.4 27.6388 8.26333 27.7688 8.15C27.8988 8.03667 28.0555 7.98 28.2388 7.98C28.5188 7.98 28.7438 8.08833 28.9138 8.305C29.0838 8.51833 29.1338 8.81167 29.0638 9.185L28.7188 10.98C28.6455 11.37 28.6622 11.67 28.7688 11.88C28.8788 12.09 29.0555 12.195 29.2988 12.195C29.7588 12.195 30.2005 11.835 30.6238 11.115C31.0472 10.3917 31.3505 9.41667 31.5338 8.19C31.5472 8.09667 31.6005 8.05 31.6938 8.05H32.3688C32.4755 8.05 32.5222 8.10333 32.5088 8.21L32.0088 11.72C31.9755 11.9533 31.9788 12.1133 32.0188 12.2C32.0622 12.2833 32.1755 12.3067 32.3588 12.27C32.4222 12.26 32.4688 12.275 32.4988 12.315C32.5288 12.355 32.5355 12.4217 32.5188 12.515C32.4922 12.675 32.4138 12.8117 32.2838 12.925C32.1538 13.0383 31.9955 13.095 31.8088 13.095C31.5388 13.095 31.3255 12.99 31.1688 12.78C31.0122 12.5667 30.9605 12.27 31.0138 11.89L31.1138 11.14H31.0138C30.7272 11.7967 30.4038 12.29 30.0438 12.62C29.6838 12.9467 29.2972 13.11 28.8838 13.11ZM38.0912 11.875L38.3012 12.275C38.3412 12.345 38.3328 12.4083 38.2762 12.465C38.1095 12.6317 37.8578 12.785 37.5212 12.925C37.1878 13.0617 36.8145 13.13 36.4012 13.13C36.2312 13.13 36.0695 13.115 35.9162 13.085C35.7628 13.0583 35.6095 13.0117 35.4562 12.945C35.3062 12.8783 35.1762 12.79 35.0662 12.68C34.9595 12.57 34.8645 12.435 34.7812 12.275C34.6978 12.1117 34.6478 11.92 34.6312 11.7C34.6145 11.48 34.6228 11.2283 34.6562 10.945L34.6862 10.74L33.5362 11.14C33.4895 11.1567 33.4528 11.1483 33.4262 11.115C33.3995 11.0783 33.3895 11.0333 33.3962 10.98L33.4812 10.4C33.4945 10.3133 33.5495 10.2533 33.6462 10.22L34.8212 9.815L35.1812 7.385C35.2312 7.04833 35.3178 6.75833 35.4412 6.515C35.5678 6.27167 35.7195 6.085 35.8962 5.955C36.0762 5.825 36.2612 5.73167 36.4512 5.675C36.6412 5.615 36.8462 5.585 37.0662 5.585C37.6062 5.585 38.0195 5.74167 38.3062 6.055C38.5962 6.365 38.7412 6.76333 38.7412 7.25C38.7412 7.45667 38.7145 7.66333 38.6612 7.87C38.6078 8.07667 38.5145 8.295 38.3812 8.525C38.2478 8.75167 38.0812 8.96667 37.8812 9.17C37.6812 9.37333 37.4228 9.57 37.1062 9.76C36.7928 9.95 36.4362 10.115 36.0362 10.255L35.7162 10.365L35.6162 11.02C35.5795 11.2533 35.5812 11.4533 35.6212 11.62C35.6645 11.7867 35.7378 11.9133 35.8412 12C35.9478 12.0867 36.0628 12.15 36.1862 12.19C36.3095 12.2267 36.4462 12.245 36.5962 12.245C37.0295 12.245 37.4545 12.1067 37.8712 11.83C37.9678 11.7667 38.0412 11.7817 38.0912 11.875ZM37.0662 6.47C36.8262 6.47 36.6262 6.55333 36.4662 6.72C36.3095 6.88333 36.2012 7.16667 36.1412 7.57L35.8562 9.45C36.2062 9.31333 36.5095 9.15833 36.7662 8.985C37.0262 8.81167 37.2278 8.63167 37.3712 8.445C37.5178 8.255 37.6245 8.06833 37.6912 7.885C37.7578 7.69833 37.7912 7.50833 37.7912 7.315C37.7912 6.75167 37.5495 6.47 37.0662 6.47ZM44.2435 11.9L44.4535 12.195C44.5302 12.2917 44.5252 12.3783 44.4385 12.455C44.1818 12.685 43.8735 12.855 43.5135 12.965C43.1568 13.075 42.7802 13.13 42.3835 13.13C41.6168 13.13 41.0218 12.9267 40.5985 12.52C40.1752 12.11 39.9635 11.565 39.9635 10.885C39.9635 10.3583 40.0885 9.87 40.3385 9.42C40.5918 8.97 40.9385 8.61167 41.3785 8.345C41.8218 8.075 42.3085 7.94 42.8385 7.94C43.3552 7.94 43.7535 8.06167 44.0335 8.305C44.3135 8.54833 44.4535 8.845 44.4535 9.195C44.4535 10.1417 43.3168 10.9183 41.0435 11.525C41.2635 12.0417 41.7502 12.3 42.5035 12.3C43.0902 12.3 43.5902 12.16 44.0035 11.88C44.1035 11.81 44.1835 11.8167 44.2435 11.9ZM42.7535 8.785C42.4502 8.785 42.1602 8.86333 41.8835 9.02C41.6102 9.17333 41.3802 9.40667 41.1935 9.72C41.0068 10.03 40.9118 10.385 40.9085 10.785C41.8585 10.495 42.5335 10.2417 42.9335 10.025C43.3335 9.80833 43.5335 9.57833 43.5335 9.335C43.5335 9.18167 43.4668 9.05167 43.3335 8.945C43.2035 8.83833 43.0102 8.785 42.7535 8.785ZM48.6909 7.935H49.8109C49.8109 8.20167 49.8459 8.455 49.9159 8.695C49.9892 8.93167 50.0775 9.14 50.1809 9.32C50.2875 9.5 50.3925 9.67667 50.4959 9.85C50.5992 10.0233 50.6859 10.2133 50.7559 10.42C50.8292 10.6267 50.8659 10.84 50.8659 11.06C50.8659 11.48 50.7392 11.85 50.4859 12.17C50.2359 12.49 49.9075 12.73 49.5009 12.89C49.0975 13.05 48.6525 13.13 48.1659 13.13C47.7892 13.13 47.4509 13.08 47.1509 12.98C46.8542 12.8767 46.6175 12.7417 46.4409 12.575C46.2642 12.405 46.1375 12.2117 46.0609 11.995C45.9875 11.7783 45.9742 11.5533 46.0209 11.32C46.0409 11.2367 46.0975 11.195 46.1909 11.195H46.8459C46.9425 11.195 46.9875 11.2467 46.9809 11.35C46.9675 11.6067 47.0792 11.8167 47.3159 11.98C47.5559 12.1433 47.8692 12.225 48.2559 12.225C48.7192 12.225 49.1075 12.1067 49.4209 11.87C49.7342 11.6333 49.8909 11.3133 49.8909 10.91C49.8909 10.7233 49.8525 10.5367 49.7759 10.35C49.6992 10.1633 49.6125 10.0017 49.5159 9.865C49.4225 9.72833 49.3292 9.555 49.2359 9.345C49.1459 9.135 49.0892 8.92167 49.0659 8.705L47.7259 10.215C47.5825 10.3717 47.3942 10.3417 47.1609 10.125C47.0542 10.0283 46.9925 9.93 46.9759 9.83C46.9592 9.73 46.9859 9.645 47.0559 9.575L48.5109 8.02C48.5642 7.96333 48.6242 7.935 48.6909 7.935Z" fill="#F5BDE6"/>
</svg>
