<svg width="129" height="133" viewBox="0 0 129 133" fill="none" xmlns="http://www.w3.org/2000/svg">
<path d="M79.4494 98.9379C79.409 101.941 77.0179 104.344 74.1089 104.305L53.0394 104.021C50.1303 103.982 47.8048 101.516 47.8452 98.5127L48 70L64.0862 70L79.5 70L79.4494 98.9379Z" fill="black"/>
<path fill-rule="evenodd" clip-rule="evenodd" d="M32.9208 33.0502L31.9699 103.738C31.8487 112.747 38.8253 120.145 47.5526 120.263L79.1568 120.688C87.884 120.805 95.0571 113.597 95.1783 104.588L96.1292 33.9005C96.2504 24.8913 89.2738 17.4928 80.5466 17.3754C80.587 14.3723 78.2614 11.9062 75.3523 11.867L54.2829 11.5836C51.3738 11.5445 48.9828 13.9472 48.9424 16.9502C40.2151 16.8328 33.042 24.041 32.9208 33.0502ZM43.4556 33.1919L42.5047 103.879C42.4643 106.882 44.7898 109.349 47.6989 109.388L79.3031 109.813C82.2122 109.852 84.6032 107.449 84.6436 104.446L85.5945 33.7587C85.6349 30.7557 83.3094 28.2895 80.4003 28.2504L48.7961 27.8252C45.887 27.7861 43.496 30.1888 43.4556 33.1919Z" fill="black"/>
<ellipse cx="75.1669" cy="47" rx="5.83314" ry="5" fill="black"/>
<ellipse cx="51.8331" cy="47" rx="5.83314" ry="5" fill="black"/>
<path d="M54 60.8978L73.6598 57.0643" stroke="black" stroke-width="5" stroke-linecap="round"/>
</svg>
